<svg id="edrjnzFNqcB1" xmlns="http://www.w3.org/2000/svg" xmlns:xlink="http://www.w3.org/1999/xlink" viewBox="0 0 512.001 512.001" shape-rendering="geometricPrecision" text-rendering="geometricPrecision">
<style><![CDATA[
#edrjnzFNqcB2_to {animation: edrjnzFNqcB2_to__to 10000ms linear infinite normal forwards}@keyframes edrjnzFNqcB2_to__to { 0% {transform: translate(83.7698px,80.7049px)} 1% {transform: translate(83.7698px,77.7049px)} 2% {transform: translate(83.7698px,74.7049px)} 3% {transform: translate(83.7698px,72.7049px)} 4% {transform: translate(83.7698px,70.7049px)} 5% {transform: translate(83.7698px,68.7049px)} 6% {transform: translate(83.7698px,66.7049px)} 7% {transform: translate(83.7698px,64.7049px)} 8% {transform: translate(83.7698px,62.7049px)} 9% {transform: translate(83.7698px,60.7049px)} 10% {transform: translate(83.7698px,58.7049px)} 11% {transform: translate(83.7698px,60.7049px)} 12% {transform: translate(83.7698px,62.7049px)} 13% {transform: translate(83.7698px,64.7049px)} 14% {transform: translate(83.7698px,66.7049px)} 15% {transform: translate(83.7698px,68.7049px)} 16% {transform: translate(83.7698px,70.7049px)} 17% {transform: translate(83.7698px,72.7049px)} 18% {transform: translate(83.7698px,74.7049px)} 19% {transform: translate(83.7698px,76.7049px)} 20% {transform: translate(83.7698px,78.7049px)} 21% {transform: translate(83.7698px,80.7049px)} 22% {transform: translate(83.7698px,82.7049px)} 23% {transform: translate(83.7698px,84.7049px)} 24% {transform: translate(83.7698px,86.7049px)} 25% {transform: translate(83.7698px,88.7049px)} 26% {transform: translate(83.7698px,90.7049px)} 27% {transform: translate(83.7698px,92.7049px)} 28% {transform: translate(83.7698px,94.7049px)} 29% {transform: translate(83.7698px,96.7049px)} 30% {transform: translate(83.7698px,95.7049px)} 31% {transform: translate(83.7698px,93.7049px)} 32% {transform: translate(83.7698px,91.7049px)} 33% {transform: translate(83.7698px,89.7049px)} 34% {transform: translate(83.7698px,87.7049px)} 35% {transform: translate(83.7698px,85.7049px)} 36% {transform: translate(83.7698px,83.7049px)} 37% {transform: translate(83.7698px,81.7049px)} 38% {transform: translate(83.7698px,79.7049px)} 39% {transform: translate(83.7698px,77.7049px)} 40% {transform: translate(83.7698px,75.7049px)} 41% {transform: translate(83.7698px,73.7049px)} 42% {transform: translate(83.7698px,71.7049px)} 43% {transform: translate(83.7698px,69.7049px)} 44% {transform: translate(83.7698px,67.7049px)} 45% {transform: translate(83.7698px,65.7049px)} 46% {transform: translate(83.7698px,63.7049px)} 47% {transform: translate(83.7698px,61.7049px)} 48% {transform: translate(83.7698px,59.7049px)} 49% {transform: translate(83.7698px,57.7049px)} 50% {transform: translate(83.7698px,55.7049px)} 51% {transform: translate(83.7698px,57.7049px)} 52% {transform: translate(83.7698px,59.7049px)} 53% {transform: translate(83.7698px,61.7049px)} 54% {transform: translate(83.7698px,63.7049px)} 55% {transform: translate(83.7698px,65.7049px)} 56% {transform: translate(83.7698px,67.7049px)} 57% {transform: translate(83.7698px,69.7049px)} 58% {transform: translate(83.7698px,71.7049px)} 59% {transform: translate(83.7698px,73.7049px)} 60% {transform: translate(83.7698px,75.7049px)} 61% {transform: translate(83.7698px,77.7049px)} 62% {transform: translate(83.7698px,79.7049px)} 63% {transform: translate(83.7698px,81.7049px)} 64% {transform: translate(83.7698px,83.7049px)} 65% {transform: translate(83.7698px,85.7049px)} 66% {transform: translate(83.7698px,87.7049px)} 67% {transform: translate(83.7698px,89.7049px)} 68% {transform: translate(83.7698px,91.7049px)} 69% {transform: translate(83.7698px,93.7049px)} 70% {transform: translate(83.7698px,95.7049px)} 71% {transform: translate(83.7698px,93.7049px)} 72% {transform: translate(83.7698px,91.7049px)} 73% {transform: translate(83.7698px,89.7049px)} 74% {transform: translate(83.7698px,87.7049px)} 75% {transform: translate(83.7698px,85.7049px)} 76% {transform: translate(83.7698px,83.7049px)} 77% {transform: translate(83.7698px,81.7049px)} 78% {transform: translate(83.7698px,79.7049px)} 79% {transform: translate(83.7698px,77.7049px)} 80% {transform: translate(83.7698px,74.7049px)} 81% {transform: translate(83.7698px,72.7049px)} 82% {transform: translate(83.7698px,70.7049px)} 83% {transform: translate(83.7698px,68.7049px)} 84% {transform: translate(83.7698px,66.7049px)} 85% {transform: translate(83.7698px,64.7049px)} 86% {transform: translate(83.7698px,62.7049px)} 87% {transform: translate(83.7698px,60.7049px)} 88% {transform: translate(83.7698px,58.7049px)} 89% {transform: translate(83.7698px,56.7049px)} 90% {transform: translate(83.7698px,54.7049px)} 91% {transform: translate(83.7698px,56.7049px)} 92% {transform: translate(83.7698px,58.7049px)} 93% {transform: translate(83.7698px,60.7049px)} 94% {transform: translate(83.7698px,62.7049px)} 95% {transform: translate(83.7698px,64.7049px)} 96% {transform: translate(83.7698px,66.7049px)} 97% {transform: translate(83.7698px,68.7049px)} 98% {transform: translate(83.7698px,70.7049px)} 99% {transform: translate(83.7698px,72.7049px)} 100% {transform: translate(83.7698px,72.7049px)}}
]]></style>
<g id="edrjnzFNqcB2_to" transform="translate(83.7698,80.7049)"><g transform="scale(0.60745,0.60745) translate(0,0)"><g><path d="M279.175,200.037c.015.029.024.061.038.091.029-.048.021-.08-.038-.091Z" fill="none"/><path d="M316.305,136.002c2.801-4.831,6.827-8.862,11.653-11.671-1.8-84.377-65.239-121.703-67.98-123.271-1.235-.706-2.606-1.06-3.977-1.06v136.002h60.304Z" fill="#0177b5"/><path d="M195.696,136.002h60.304L256,0c-1.371,0-2.742.354-3.977,1.061-2.742,1.567-66.18,38.894-67.98,123.271c4.827,2.808,8.852,6.839,11.653,11.67Z" fill="#035987"/><path d="M256.001,152.002v-16h-60.304c2.732,4.71,4.304,10.173,4.304,16v16v92.708c.138-.141.267-.287.406-.426l15.594-15.594v-52.688c0-22.055,17.945-40,40-40Z" fill="#5c546a"/><path d="M344.001,340.673c.135.138.262.282.398.419l31.195,31.191c.139.139.269.286.406.426v-204.707h-32v172.671Z" fill="#888693"/><path d="M376.001,168.002v-16c0-17.645-14.352-32-32-32v48h32Z" fill="#b6b8be"/><path d="M168.001,168.002v172.671c10.313-10.53,16-24.415,16-39.179v-1.609c0-14.768,5.685-28.65,16-39.175v-92.708h-32Z" fill="#888693"/><path d="M167.602,341.092c.137-.137.263-.281.398-.419v-172.671h-32v204.708c.138-.141.267-.287.406-.426l31.196-31.192Z" fill="#5c546a"/><path d="M312.001,168.002v92.708c10.315,10.525,16,24.407,16,39.175v1.609c0,14.764,5.688,28.649,16,39.179v-172.671h-32Z" fill="#5c546a"/><path d="M200.001,168.002v-16c0-5.827-1.573-11.29-4.304-16-2.801-4.831-6.827-8.862-11.653-11.671-4.72-2.747-10.198-4.329-16.043-4.329v48h32Z" fill="#b6b8be"/><path d="M144.241,489.941c.89,3.562,4.09,6.06,7.761,6.06h31.996c3.671,0,6.871-2.499,7.761-6.06l6.484-25.94h-60.487l6.485,25.94Z" fill="#5c546a"/><path d="M320.24,489.941c.89,3.562,4.09,6.06,7.761,6.06h31.996c3.671,0,6.871-2.499,7.761-6.06l6.484-25.94h-60.487l6.485,25.94Z" fill="#5c546a"/><path d="M208.022,416.002c.32-4.168,3.796-7.387,7.976-7.387h.002v-163.926l-15.594,15.594c-.139.139-.269.286-.406.426-10.315,10.525-16,24.407-16,39.175v1.609c0,14.764-5.688,28.649-16,39.179-.135.138-.262.282-.398.419l-31.195,31.191c-.139.139-.269.286-.406.426-10.315,10.525-16,24.407-16,39.175v12.117h87.289l.732-7.998Z" fill="#d5d9de"/><path d="M120.001,424.002v32c0,4.417,3.578,8,8,8h9.757h60.487h5.385l3.661-40h-87.29Z" fill="#0177b5"/><path d="M376.001,372.709c-.138-.141-.267-.287-.406-.426L344.4,341.092c-.137-.137-.263-.281-.398-.419-10.313-10.53-16-24.415-16-39.179v-1.609c0-14.768-5.685-28.65-16-39.175-.138-.141-.267-.287-.406-.426L296.002,244.69v163.926h.002c4.18,0,7.656,3.218,7.977,7.387l.732,8h87.289v-12.117c-.001-14.769-5.686-28.652-16.001-39.177Z" fill="#d5d9de"/><path d="M308.373,464.001h5.384h60.487h9.758c4.422,0,8-3.582,8-8v-32h-87.289l3.66,40Z" fill="#0177b5"/><path d="M256.001,152.002c-22.055,0-40,17.945-40,40v52.688v163.926h16v-160.614-44.222c0-.02,0-.039,0-.058-.022-1.284.265-2.549.826-3.686.792-1.607,2.126-2.96,3.885-3.754c12.609-5.68,25.969-5.68,38.578,0c1.759.794,3.093,2.146,3.885,3.754.059.011.067.043.038.091.532,1.114.809,2.344.787,3.595c0,.019,0,.038,0,.058v44.222v160.613h16v-163.926-52.688c.001-22.054-17.945-39.999-39.999-39.999Z" fill="#e3e6e9"/><path d="M280.001,203.78c-.025,1.033-.252,2.079-.703,3.081-1.336,2.961-4.25,4.719-7.305,4.719-1.094,0-2.211-.23-3.281-.711-8.438-3.805-16.984-3.805-25.422,0-4.07,1.809-8.773.012-10.586-4.008-.451-1.002-.678-2.048-.703-3.081v44.222v160.613h16v-40.613c0-4.418,3.582-8,8-8s8,3.582,8,8v40.613h16v-160.613-44.222Z" fill="#d5d9de"/><path d="M303.98,416.002c-.321-4.168-3.796-7.387-7.977-7.387h-.002-16-16v63.386h45.104l-.732-8-3.661-40-.732-7.999Z" fill="#b6b8be"/><path d="M248.001,408.615h-16-16-.002c-4.18,0-7.656,3.218-7.976,7.387l-.732,8-3.661,40-.732,8h45.104v-63.387Z" fill="#888693"/><path d="M243.29,210.869c8.438-3.805,16.984-3.805,25.422,0c1.07.48,2.188.711,3.281.711c3.055,0,5.969-1.758,7.305-4.719.451-1.002.678-2.048.703-3.081c0-.02,0-.039,0-.058.022-1.251-.255-2.481-.787-3.595-.014-.03-.024-.062-.038-.091-.792-1.607-2.126-2.96-3.885-3.754-12.609-5.68-25.969-5.68-38.578,0-1.759.794-3.093,2.146-3.885,3.754-.56,1.137-.848,2.401-.826,3.686c0,.019,0,.038,0,.058.025,1.033.252,2.079.703,3.081c1.811,4.02,6.514,5.817,10.585,4.008Z" fill="#5c546a"/><path d="M316.305,136.002h-60.304v16c22.055,0,40,17.945,40,40v52.688l15.594,15.594c.139.139.269.286.406.426v-92.708h32v-48c-5.845,0-11.323,1.582-16.043,4.329-4.826,2.809-8.852,6.84-11.653,11.671Z" fill="#888693"/><path d="M168.001,120.002c-17.648,0-32,14.355-32,32v16h32v-48Z" fill="#888693"/><path d="M264.001,480.001c0,4.418-3.582,8-8,8v24h48c2.227,0,4.359-.93,5.867-2.563c1.516-1.637,2.281-3.828,2.109-6.051L309.104,472v0L264,472v8.001Z" fill="#888693"/><path d="M248.001,480.001v-8h-45.104v0l-2.873,31.387c-.172,2.223.594,4.414,2.109,6.051c1.508,1.633,3.641,2.563,5.867,2.563h48v-24c-4.418-.001-7.999-3.582-7.999-8.001Z" fill="#5c546a"/><path d="M256.001,360.002c-4.418,0-8,3.582-8,8v40.613v63.386v8c0,4.418,3.582,8,8,8s8-3.582,8-8v-8-63.386-40.613c0-4.419-3.582-8-8-8Z" fill="#035987"/></g></g></g></svg>
