<?xml version="1.0" encoding="UTF-8"?>
<svg xmlns="http://www.w3.org/2000/svg" xmlns:xlink="http://www.w3.org/1999/xlink" width="16px" height="16px" viewBox="0 0 16 16" version="1.1">
<g id="surface1">
<path style=" stroke:none;fill-rule:nonzero;fill:rgb(0%,0%,0%);fill-opacity:1;" d="M 6.179688 0.824219 C 6.015625 0.828125 5.871094 0.835938 5.863281 0.839844 C 5.855469 0.847656 5.742188 0.871094 5.617188 0.890625 C 5.488281 0.910156 5.34375 0.9375 5.296875 0.949219 C 5.246094 0.964844 5.179688 0.980469 5.144531 0.984375 C 5.042969 1.007812 4.6875 1.125 4.535156 1.191406 C 4.390625 1.25 4.289062 1.300781 4.179688 1.367188 C 4.152344 1.382812 4.109375 1.402344 4.089844 1.414062 C 4.070312 1.421875 4.03125 1.449219 4 1.472656 C 3.96875 1.496094 3.9375 1.515625 3.933594 1.515625 C 3.929688 1.515625 3.917969 1.523438 3.90625 1.53125 C 3.894531 1.539062 3.804688 1.609375 3.699219 1.691406 C 3.597656 1.769531 3.453125 1.898438 3.382812 1.972656 C 3.269531 2.089844 2.988281 2.441406 2.925781 2.539062 C 2.820312 2.707031 2.683594 2.949219 2.683594 2.964844 C 2.683594 2.976562 2.675781 2.988281 2.667969 2.992188 C 2.625 3.019531 2.40625 3.542969 2.382812 3.683594 C 2.375 3.71875 2.363281 3.761719 2.355469 3.777344 C 2.347656 3.792969 2.335938 3.832031 2.332031 3.863281 C 2.324219 3.894531 2.3125 3.953125 2.300781 3.996094 C 2.25 4.171875 2.199219 4.511719 2.171875 4.863281 C 2.15625 5.09375 2.148438 5.671875 2.160156 5.878906 C 2.167969 5.976562 2.175781 6.113281 2.179688 6.1875 C 2.191406 6.320312 2.214844 6.535156 2.246094 6.742188 C 2.257812 6.800781 2.269531 6.894531 2.277344 6.953125 C 2.296875 7.089844 2.335938 7.273438 2.359375 7.375 C 2.371094 7.417969 2.382812 7.476562 2.382812 7.496094 C 2.382812 7.519531 2.390625 7.550781 2.398438 7.5625 C 2.40625 7.578125 2.417969 7.628906 2.425781 7.675781 C 2.445312 7.808594 2.472656 7.933594 2.496094 8 C 2.523438 8.070312 2.558594 8.089844 2.683594 8.109375 C 2.726562 8.117188 2.855469 8.140625 2.964844 8.160156 C 3.078125 8.179688 3.210938 8.203125 3.265625 8.210938 C 3.320312 8.222656 3.4375 8.238281 3.527344 8.257812 C 3.785156 8.300781 4.027344 8.34375 4.164062 8.367188 C 4.234375 8.378906 4.304688 8.390625 4.320312 8.394531 C 4.339844 8.398438 4.417969 8.414062 4.496094 8.425781 C 4.574219 8.4375 4.691406 8.460938 4.757812 8.46875 C 4.824219 8.480469 4.957031 8.503906 5.054688 8.519531 C 5.15625 8.539062 5.3125 8.5625 5.410156 8.582031 C 5.503906 8.597656 5.636719 8.621094 5.707031 8.632812 C 5.847656 8.652344 6.054688 8.691406 6.15625 8.710938 C 6.195312 8.71875 6.339844 8.746094 6.480469 8.769531 C 6.621094 8.796875 6.796875 8.828125 6.875 8.847656 C 7.023438 8.875 7.203125 8.886719 7.234375 8.867188 C 7.261719 8.851562 7.246094 8.78125 7.207031 8.691406 C 7.191406 8.65625 7.175781 8.613281 7.175781 8.601562 C 7.175781 8.589844 7.164062 8.554688 7.152344 8.523438 C 7.109375 8.429688 7.089844 8.382812 7.0625 8.316406 C 7.046875 8.277344 7.027344 8.222656 7.015625 8.191406 C 7.003906 8.15625 6.984375 8.109375 6.972656 8.085938 C 6.964844 8.0625 6.941406 8.011719 6.929688 7.976562 C 6.898438 7.894531 6.867188 7.820312 6.835938 7.765625 C 6.824219 7.742188 6.816406 7.714844 6.816406 7.703125 C 6.816406 7.683594 6.785156 7.605469 6.746094 7.53125 C 6.734375 7.507812 6.726562 7.476562 6.726562 7.464844 C 6.726562 7.449219 6.714844 7.421875 6.703125 7.398438 C 6.691406 7.375 6.683594 7.347656 6.683594 7.335938 C 6.683594 7.324219 6.671875 7.292969 6.660156 7.265625 C 6.640625 7.222656 6.597656 7.085938 6.519531 6.828125 C 6.507812 6.785156 6.492188 6.734375 6.484375 6.714844 C 6.476562 6.6875 6.339844 6.152344 6.308594 6.011719 C 6.230469 5.671875 6.199219 5.5 6.171875 5.230469 C 6.164062 5.160156 6.152344 5.046875 6.144531 4.980469 C 6.113281 4.726562 6.132812 4.058594 6.179688 3.855469 C 6.230469 3.636719 6.300781 3.425781 6.367188 3.296875 C 6.539062 2.96875 6.746094 2.734375 6.980469 2.601562 C 7.148438 2.503906 7.386719 2.398438 7.535156 2.351562 C 7.589844 2.335938 7.644531 2.316406 7.664062 2.308594 C 7.707031 2.292969 7.929688 2.242188 8.046875 2.222656 C 8.296875 2.179688 8.558594 2.160156 8.90625 2.164062 C 9.398438 2.164062 9.664062 2.183594 10.300781 2.269531 C 10.367188 2.277344 10.480469 2.289062 10.554688 2.296875 C 10.628906 2.304688 10.75 2.320312 10.824219 2.328125 C 10.945312 2.347656 10.972656 2.347656 11.078125 2.320312 C 11.144531 2.304688 11.210938 2.285156 11.222656 2.28125 C 11.269531 2.257812 11.265625 2.210938 11.210938 2.132812 C 11.152344 2.0625 11.109375 2.035156 10.898438 1.941406 C 10.859375 1.925781 10.746094 1.875 10.65625 1.832031 C 10.5625 1.785156 10.476562 1.75 10.464844 1.75 C 10.453125 1.75 10.4375 1.742188 10.425781 1.730469 C 10.417969 1.71875 10.398438 1.707031 10.382812 1.707031 C 10.371094 1.707031 10.347656 1.699219 10.328125 1.6875 C 10.3125 1.675781 10.234375 1.640625 10.15625 1.613281 C 10.078125 1.582031 9.976562 1.542969 9.933594 1.523438 C 9.640625 1.402344 8.929688 1.179688 8.585938 1.097656 C 8.496094 1.074219 8.382812 1.046875 8.332031 1.035156 C 7.972656 0.945312 7.324219 0.855469 6.898438 0.832031 C 6.554688 0.816406 6.472656 0.8125 6.179688 0.824219 Z M 6.179688 0.824219 "/>
<path style=" stroke:none;fill-rule:nonzero;fill:rgb(0%,0%,0%);fill-opacity:1;" d="M 8.1875 3.40625 C 7.90625 3.4375 7.769531 3.480469 7.535156 3.605469 C 7.445312 3.65625 7.304688 3.761719 7.222656 3.832031 C 7.144531 3.902344 7.019531 4.0625 6.984375 4.136719 C 6.898438 4.316406 6.863281 4.40625 6.863281 4.4375 C 6.863281 4.453125 6.851562 4.5 6.835938 4.535156 C 6.800781 4.640625 6.792969 4.890625 6.824219 5.050781 C 6.847656 5.191406 6.878906 5.300781 6.914062 5.410156 C 6.925781 5.441406 6.9375 5.480469 6.9375 5.496094 C 6.9375 5.511719 6.945312 5.539062 6.957031 5.558594 C 6.972656 5.582031 7.003906 5.648438 7.035156 5.710938 C 7.09375 5.835938 7.101562 5.847656 7.1875 5.964844 C 7.222656 6.007812 7.25 6.054688 7.25 6.058594 C 7.25 6.066406 7.339844 6.167969 7.449219 6.28125 C 7.640625 6.480469 7.917969 6.710938 8.0625 6.789062 C 8.097656 6.804688 8.148438 6.835938 8.175781 6.855469 C 8.277344 6.910156 8.539062 7.035156 8.566406 7.035156 C 8.574219 7.035156 8.597656 7.042969 8.621094 7.058594 C 8.644531 7.070312 8.6875 7.085938 8.71875 7.09375 C 8.746094 7.101562 8.835938 7.125 8.914062 7.144531 C 9.132812 7.199219 9.289062 7.21875 9.542969 7.214844 C 9.710938 7.210938 9.808594 7.203125 9.902344 7.183594 C 10.058594 7.144531 10.378906 7.039062 10.410156 7.015625 C 10.425781 7.003906 10.484375 6.964844 10.546875 6.925781 C 10.828125 6.757812 11.074219 6.429688 11.117188 6.167969 C 11.121094 6.128906 11.136719 6.058594 11.152344 6.007812 C 11.191406 5.863281 11.171875 5.433594 11.117188 5.304688 C 11.109375 5.289062 11.089844 5.234375 11.070312 5.179688 C 11.027344 5.058594 10.925781 4.859375 10.847656 4.746094 C 10.8125 4.699219 10.78125 4.648438 10.777344 4.636719 C 10.773438 4.625 10.753906 4.605469 10.742188 4.589844 C 10.730469 4.578125 10.691406 4.535156 10.660156 4.496094 C 10.519531 4.328125 10.433594 4.25 10.164062 4.03125 C 10.03125 3.921875 9.542969 3.636719 9.488281 3.636719 C 9.480469 3.636719 9.449219 3.625 9.421875 3.609375 C 9.375 3.585938 9.191406 3.523438 8.988281 3.464844 C 8.898438 3.4375 8.507812 3.386719 8.421875 3.386719 C 8.382812 3.386719 8.277344 3.398438 8.1875 3.40625 Z M 8.1875 3.40625 "/>
<path style=" stroke:none;fill-rule:nonzero;fill:rgb(0%,0%,0%);fill-opacity:1;" d="M 11.613281 3.792969 C 11.601562 3.796875 11.585938 3.816406 11.574219 3.839844 C 11.535156 3.910156 11.601562 4.238281 11.683594 4.382812 C 11.691406 4.398438 11.699219 4.425781 11.699219 4.4375 C 11.699219 4.449219 11.710938 4.484375 11.722656 4.511719 C 11.765625 4.605469 11.773438 4.625 11.796875 4.695312 C 11.980469 5.207031 12.027344 5.429688 12.039062 5.824219 C 12.058594 6.347656 11.988281 6.652344 11.761719 7.042969 C 11.714844 7.121094 11.621094 7.269531 11.59375 7.308594 C 11.585938 7.3125 11.542969 7.371094 11.496094 7.433594 C 11.363281 7.601562 11.144531 7.808594 10.867188 8.019531 C 10.757812 8.101562 10.445312 8.285156 10.261719 8.375 C 10.007812 8.5 9.835938 8.578125 9.8125 8.578125 C 9.808594 8.578125 9.78125 8.589844 9.757812 8.601562 C 9.734375 8.613281 9.703125 8.625 9.691406 8.625 C 9.679688 8.625 9.664062 8.628906 9.652344 8.636719 C 9.621094 8.667969 9.140625 8.808594 8.824219 8.886719 C 8.496094 8.964844 8.027344 9.042969 7.722656 9.066406 C 7.617188 9.074219 7.460938 9.085938 7.378906 9.09375 C 7.296875 9.101562 7.148438 9.109375 7.046875 9.109375 C 6.773438 9.117188 5.890625 9.082031 5.648438 9.058594 C 5.226562 9.015625 5.128906 9.007812 5.046875 8.992188 C 5.003906 8.984375 4.886719 8.964844 4.785156 8.949219 C 4.480469 8.898438 4.414062 8.886719 4.351562 8.871094 C 4.320312 8.863281 4.242188 8.847656 4.179688 8.835938 C 4.011719 8.804688 3.796875 8.757812 3.535156 8.683594 C 3.472656 8.667969 3.375 8.644531 3.324219 8.632812 C 3.226562 8.609375 2.898438 8.527344 2.757812 8.484375 C 2.644531 8.453125 2.488281 8.425781 2.476562 8.4375 C 2.464844 8.449219 2.5 8.570312 2.527344 8.625 C 2.539062 8.644531 2.546875 8.667969 2.546875 8.679688 C 2.546875 8.6875 2.558594 8.714844 2.570312 8.738281 C 2.582031 8.757812 2.644531 8.917969 2.707031 9.085938 C 2.769531 9.257812 2.828125 9.414062 2.839844 9.441406 C 2.847656 9.464844 2.878906 9.542969 2.90625 9.617188 C 2.933594 9.691406 2.960938 9.753906 2.96875 9.761719 C 2.976562 9.773438 2.980469 9.789062 2.980469 9.800781 C 2.980469 9.8125 2.992188 9.839844 3.003906 9.863281 C 3.015625 9.886719 3.027344 9.921875 3.035156 9.945312 C 3.039062 9.972656 3.050781 9.996094 3.058594 10 C 3.066406 10.007812 3.070312 10.019531 3.070312 10.035156 C 3.070312 10.046875 3.082031 10.078125 3.09375 10.101562 C 3.105469 10.125 3.117188 10.148438 3.117188 10.15625 C 3.117188 10.167969 3.125 10.191406 3.136719 10.21875 C 3.160156 10.269531 3.246094 10.484375 3.289062 10.601562 C 3.304688 10.644531 3.320312 10.683594 3.328125 10.691406 C 3.335938 10.699219 3.339844 10.714844 3.339844 10.726562 C 3.339844 10.742188 3.351562 10.769531 3.363281 10.792969 C 3.375 10.816406 3.386719 10.839844 3.386719 10.847656 C 3.386719 10.859375 3.394531 10.882812 3.40625 10.910156 C 3.429688 10.964844 3.480469 11.089844 3.542969 11.257812 C 3.609375 11.425781 3.632812 11.488281 3.644531 11.5 C 3.648438 11.507812 3.65625 11.523438 3.65625 11.535156 C 3.65625 11.5625 3.71875 11.722656 3.738281 11.738281 C 3.742188 11.742188 3.746094 11.761719 3.746094 11.773438 C 3.746094 11.789062 3.765625 11.84375 3.789062 11.898438 C 3.8125 11.953125 3.835938 12.007812 3.835938 12.015625 C 3.835938 12.027344 3.84375 12.054688 3.855469 12.078125 C 3.875 12.117188 3.894531 12.160156 3.949219 12.304688 C 3.992188 12.425781 4.019531 12.488281 4.039062 12.535156 C 4.050781 12.5625 4.058594 12.59375 4.058594 12.609375 C 4.058594 12.621094 4.070312 12.648438 4.082031 12.664062 C 4.09375 12.679688 4.105469 12.703125 4.105469 12.722656 C 4.105469 12.738281 4.117188 12.765625 4.128906 12.78125 C 4.140625 12.796875 4.148438 12.824219 4.148438 12.839844 C 4.148438 12.855469 4.160156 12.882812 4.171875 12.898438 C 4.183594 12.914062 4.195312 12.9375 4.195312 12.953125 C 4.195312 12.96875 4.203125 12.996094 4.214844 13.019531 C 4.226562 13.042969 4.25 13.089844 4.261719 13.121094 C 4.296875 13.214844 4.332031 13.308594 4.347656 13.339844 C 4.371094 13.402344 4.425781 13.539062 4.488281 13.707031 C 4.515625 13.777344 4.527344 13.800781 4.566406 13.898438 C 4.585938 13.9375 4.597656 13.976562 4.597656 13.988281 C 4.597656 14 4.609375 14.027344 4.621094 14.050781 C 4.632812 14.070312 4.652344 14.117188 4.664062 14.148438 C 4.675781 14.183594 4.695312 14.238281 4.710938 14.269531 C 4.722656 14.304688 4.746094 14.363281 4.757812 14.394531 C 4.773438 14.429688 4.789062 14.480469 4.804688 14.507812 C 4.816406 14.535156 4.824219 14.566406 4.824219 14.578125 C 4.824219 14.589844 4.839844 14.609375 4.859375 14.621094 C 4.886719 14.640625 4.902344 14.640625 4.972656 14.621094 C 5.019531 14.609375 5.078125 14.597656 5.101562 14.597656 C 5.125 14.597656 5.179688 14.589844 5.21875 14.578125 C 5.261719 14.566406 5.316406 14.554688 5.34375 14.554688 C 5.371094 14.554688 5.40625 14.550781 5.425781 14.542969 C 5.445312 14.535156 5.527344 14.519531 5.609375 14.503906 C 5.691406 14.488281 5.800781 14.46875 5.84375 14.457031 C 5.894531 14.445312 5.953125 14.4375 5.976562 14.4375 C 6 14.4375 6.039062 14.429688 6.058594 14.421875 C 6.082031 14.414062 6.132812 14.402344 6.175781 14.394531 C 6.269531 14.375 6.488281 14.324219 6.644531 14.28125 C 6.6875 14.269531 6.808594 14.238281 6.914062 14.214844 C 7.023438 14.191406 7.121094 14.164062 7.136719 14.160156 C 7.195312 14.136719 7.324219 14.097656 7.339844 14.097656 C 7.351562 14.097656 7.378906 14.089844 7.40625 14.078125 C 7.433594 14.066406 7.492188 14.046875 7.542969 14.03125 C 7.59375 14.019531 7.660156 14 7.691406 13.988281 C 7.726562 13.976562 7.773438 13.964844 7.800781 13.957031 C 7.828125 13.953125 7.851562 13.941406 7.859375 13.933594 C 7.863281 13.929688 7.882812 13.921875 7.898438 13.921875 C 7.917969 13.921875 7.953125 13.910156 7.976562 13.898438 C 8 13.886719 8.03125 13.878906 8.042969 13.878906 C 8.058594 13.878906 8.082031 13.867188 8.097656 13.855469 C 8.113281 13.847656 8.144531 13.832031 8.164062 13.828125 C 8.1875 13.824219 8.238281 13.808594 8.285156 13.792969 C 8.441406 13.730469 8.488281 13.714844 8.53125 13.703125 C 8.558594 13.695312 8.597656 13.683594 8.621094 13.671875 C 8.648438 13.660156 8.6875 13.644531 8.710938 13.636719 C 8.8125 13.59375 8.898438 13.558594 9.070312 13.480469 C 9.195312 13.425781 9.230469 13.410156 9.371094 13.347656 C 9.429688 13.324219 9.484375 13.296875 9.5 13.289062 C 9.511719 13.285156 9.613281 13.230469 9.730469 13.171875 C 10.050781 13.007812 10.085938 12.992188 10.148438 12.949219 C 10.183594 12.929688 10.21875 12.90625 10.230469 12.902344 C 10.246094 12.894531 10.269531 12.882812 10.285156 12.871094 C 10.300781 12.863281 10.339844 12.835938 10.375 12.816406 C 10.410156 12.796875 10.449219 12.773438 10.464844 12.761719 C 10.480469 12.753906 10.511719 12.734375 10.535156 12.726562 C 10.558594 12.714844 10.578125 12.703125 10.578125 12.699219 C 10.578125 12.691406 10.585938 12.6875 10.589844 12.6875 C 10.601562 12.6875 10.640625 12.664062 10.679688 12.636719 C 10.71875 12.609375 10.828125 12.535156 10.921875 12.472656 C 11.113281 12.34375 11.175781 12.296875 11.441406 12.085938 C 11.773438 11.820312 12.167969 11.445312 12.386719 11.191406 C 12.445312 11.117188 12.511719 11.042969 12.53125 11.023438 C 12.589844 10.957031 12.757812 10.726562 12.800781 10.65625 C 12.808594 10.644531 12.832031 10.609375 12.855469 10.582031 C 12.996094 10.386719 13.296875 9.832031 13.425781 9.523438 C 13.441406 9.476562 13.472656 9.40625 13.492188 9.367188 C 13.511719 9.324219 13.53125 9.265625 13.542969 9.226562 C 13.570312 9.121094 13.640625 8.917969 13.675781 8.84375 C 13.691406 8.804688 13.710938 8.726562 13.714844 8.652344 C 13.722656 8.585938 13.738281 8.507812 13.75 8.484375 C 13.765625 8.453125 13.773438 8.351562 13.78125 8.050781 C 13.792969 7.675781 13.785156 7.492188 13.753906 7.285156 C 13.746094 7.230469 13.730469 7.125 13.71875 7.046875 C 13.707031 6.96875 13.691406 6.898438 13.6875 6.890625 C 13.679688 6.878906 13.671875 6.839844 13.664062 6.796875 C 13.652344 6.753906 13.636719 6.683594 13.625 6.640625 C 13.613281 6.597656 13.59375 6.53125 13.582031 6.496094 C 13.554688 6.410156 13.53125 6.335938 13.503906 6.277344 C 13.492188 6.25 13.472656 6.203125 13.460938 6.167969 C 13.402344 6.015625 13.296875 5.789062 13.214844 5.644531 C 13.195312 5.613281 13.164062 5.558594 13.144531 5.527344 C 13.128906 5.492188 13.097656 5.4375 13.074219 5.40625 C 13.050781 5.371094 13.035156 5.339844 13.035156 5.332031 C 13.035156 5.328125 13.015625 5.300781 12.988281 5.269531 C 12.964844 5.238281 12.945312 5.210938 12.945312 5.203125 C 12.945312 5.191406 12.773438 4.953125 12.683594 4.839844 C 12.585938 4.714844 12.449219 4.5625 12.355469 4.460938 C 12.3125 4.414062 12.238281 4.335938 12.195312 4.285156 C 12.070312 4.140625 11.773438 3.839844 11.757812 3.839844 C 11.75 3.839844 11.71875 3.828125 11.6875 3.816406 C 11.65625 3.800781 11.621094 3.792969 11.613281 3.792969 Z M 11.613281 3.792969 "/>
</g>
</svg>
