<svg xmlns="http://www.w3.org/2000/svg" xmlns:xlink="http://www.w3.org/1999/xlink" version="1.1" x="0px" y="0px" viewBox="0 0 100 125" enable-background="new 0 0 100 100" xml:space="preserve"><g><path fill="none" d="M29.36,16.382c0,11.586,5.216,25.313,13.946,28.23c1.625,0.542,2.708,2.076,2.678,3.79l-0.034,1.851   c-0.031,1.623-1.058,3.059-2.583,3.614C34.715,57.001,29.36,71.753,29.36,83.621c0,0.028-0.008,0.057-0.008,0.085H70.65   c0-0.028-0.01-0.057-0.01-0.085c0-15.399-7.364-27.47-14.189-29.821c-1.586-0.547-2.648-2.041-2.643-3.719l0.007-1.699   c0.006-1.7,1.108-3.202,2.725-3.719c8.828-2.825,14.101-16.598,14.101-28.281c0-0.031,0.01-0.058,0.01-0.089h-41.3   C29.352,16.324,29.36,16.352,29.36,16.382z M62.493,74.986c1.732,0,3.135,1.403,3.135,3.135s-1.402,3.136-3.135,3.136H37.508   c-1.732,0-3.136-1.404-3.136-3.136s1.404-3.135,3.136-3.135H62.493z M66.736,24.394c-1.311,8.106-5.324,16-11.283,17.908   L44.42,42.261c-5.887-1.967-9.852-9.824-11.156-17.867H66.736z"/><path d="M90.501,10.806c0-3.03-2.459-5.487-5.487-5.487H14.987c-3.03,0-5.487,2.457-5.487,5.487c0,3.03,2.457,5.487,5.487,5.487   h6.543c-0.001,0.031-0.009,0.058-0.009,0.089c0,10.132,3.826,25.807,13.97,32.956c-10.08,7.587-13.97,24.198-13.97,34.283   c0,0.028,0.008,0.057,0.008,0.085h-6.542c-3.03,0-5.487,2.458-5.487,5.487c0,3.03,2.457,5.487,5.487,5.487h70.027   c3.028,0,5.487-2.457,5.487-5.487c0-3.029-2.459-5.487-5.487-5.487h-6.54c0-0.028,0.006-0.057,0.006-0.085   c0-10.174-3.929-26.847-14.106-34.382c6.901-5.074,14.106-15.871,14.106-32.857c0-0.031-0.006-0.058-0.009-0.089h6.543   C88.042,16.293,90.501,13.836,90.501,10.806z M70.641,16.382c0,11.683-5.272,25.456-14.101,28.281   c-1.616,0.517-2.719,2.019-2.725,3.719l-0.007,1.699c-0.006,1.678,1.057,3.172,2.643,3.719   c6.825,2.352,14.189,14.422,14.189,29.821c0,0.028,0.01,0.057,0.01,0.085H29.352c0-0.028,0.008-0.057,0.008-0.085   c0-11.868,5.355-26.62,14.007-29.755c1.525-0.555,2.552-1.991,2.583-3.614l0.034-1.851c0.03-1.713-1.053-3.248-2.678-3.79   c-8.73-2.917-13.946-16.644-13.946-28.23c0-0.031-0.008-0.058-0.009-0.089h41.3C70.65,16.324,70.641,16.352,70.641,16.382z"/><path d="M44.42,42.261l11.033,0.042c5.959-1.908,9.973-9.802,11.283-17.908H33.264C34.568,32.437,38.533,40.293,44.42,42.261z"/><path d="M34.372,78.121c0,1.731,1.404,3.136,3.136,3.136h24.985c1.732,0,3.135-1.404,3.135-3.136s-1.402-3.135-3.135-3.135H37.508   C35.776,74.986,34.372,76.39,34.372,78.121z"/></g></svg>